<?xml version="1.0" standalone="no"?>
<!DOCTYPE svg PUBLIC "-//W3C//DTD SVG 20010904//EN"
 "http://www.w3.org/TR/2001/REC-SVG-20010904/DTD/svg10.dtd">
<svg version="1.0" xmlns="http://www.w3.org/2000/svg"
 width="900.000000pt" height="453.000000pt" viewBox="0 0 900.000000 453.000000"
 preserveAspectRatio="xMidYMid meet">
<metadata>
Created by potrace 1.10, written by Peter Selinger 2001-2011
</metadata>
<g transform="translate(0.000000,453.000000) scale(0.100000,-0.100000)"
fill="#000000" stroke="none">
<path d="M506 2303 c-3 -3 -6 -43 -6 -88 0 -61 -4 -86 -15 -95 -10 -8 -15 -30
-15 -61 0 -47 -1 -48 -47 -72 -27 -13 -50 -31 -51 -41 -5 -24 25 -55 62 -64
l31 -8 -3 -255 c-2 -240 -17 -545 -28 -580 -5 -19 -34 -29 -86 -29 -50 0 -50
-21 -2 -84 36 -47 37 -66 5 -66 -10 0 -26 -11 -35 -25 -21 -32 -54 -33 -61 -2
-3 12 -6 49 -7 82 l-3 60 -48 3 c-29 2 -55 -2 -64 -10 -8 -7 -36 -15 -62 -18
l-46 -5 -1 -78 c0 -46 -5 -82 -12 -89 -9 -9 -12 -111 -12 -395 l0 -383 4500 0
4500 0 0 289 c0 278 -1 289 -20 294 -11 3 -22 17 -26 33 -3 16 -18 49 -31 72
-16 28 -23 53 -20 70 5 27 -30 72 -57 72 -21 0 -30 19 -16 35 10 12 7 16 -13
24 -14 6 -38 26 -54 45 -35 44 -51 45 -84 4 -31 -37 -49 -34 -73 16 -13 27
-14 41 -6 56 9 16 6 22 -19 35 -35 17 -71 65 -71 93 0 11 -7 25 -15 32 -22 18
-18 47 8 54 21 5 20 7 -15 36 -20 17 -38 40 -40 53 -3 19 -11 23 -56 27 -50 5
-55 4 -73 -21 -10 -15 -19 -34 -19 -43 0 -9 -7 -19 -15 -22 -19 -8 -19 -24 1
-38 14 -10 13 -14 -5 -38 -12 -14 -21 -33 -21 -42 0 -29 -24 -68 -52 -82 -19
-10 -28 -22 -28 -39 0 -43 -30 -31 -31 13 -1 20 -2 57 -3 82 -2 25 2 48 7 51
10 7 9 11 -26 73 l-22 39 -75 -2 c-41 -1 -77 -4 -81 -7 -3 -2 -9 -17 -12 -34
-5 -21 -12 -30 -26 -30 -11 0 -36 -8 -56 -17 -36 -17 -36 -17 -58 8 -12 14
-39 34 -60 45 -22 10 -52 36 -69 57 -29 36 -30 39 -13 57 10 11 14 25 11 32
-31 61 -31 61 -100 62 -56 1 -66 -2 -66 -16 0 -9 -8 -21 -17 -27 -15 -8 -16
-13 -6 -30 11 -18 9 -22 -15 -33 -19 -9 -28 -22 -30 -43 -4 -35 -36 -73 -66
-77 -15 -2 -21 -11 -22 -29 -3 -67 -39 -55 -50 16 -7 51 -17 62 -59 67 -24 2
-31 8 -33 31 -3 22 1 30 17 34 25 6 28 33 5 33 -20 0 -71 35 -107 74 -22 24
-29 28 -34 16 -10 -25 -85 -90 -104 -90 -27 0 -32 -18 -9 -30 15 -8 20 -19 18
-38 -3 -26 -6 -27 -71 -30 l-68 -3 -14 35 c-8 19 -31 50 -50 69 -27 26 -35 42
-35 69 0 43 -15 58 -58 58 -29 0 -33 3 -27 18 4 9 10 27 12 40 5 18 1 22 -22
22 -34 0 -91 43 -99 75 -4 14 -11 25 -16 25 -6 0 -32 -22 -58 -50 -34 -36 -56
-50 -75 -50 -30 0 -35 -17 -10 -35 22 -17 10 -45 -21 -45 -45 0 -56 -10 -56
-49 0 -36 -28 -81 -50 -81 -14 0 -40 -55 -41 -87 0 -15 -9 -50 -18 -78 -17
-48 -19 -50 -56 -50 -22 0 -40 -5 -42 -12 -3 -7 0 -13 5 -13 41 0 59 -100 22
-120 -24 -13 -26 -43 -5 -60 10 -8 12 -17 6 -23 -11 -11 -109 21 -164 53 l-36
21 -68 -37 c-37 -21 -85 -41 -107 -44 -44 -6 -58 -25 -27 -35 19 -6 20 -8 6
-34 -13 -27 -46 -46 -89 -53 -39 -6 -28 -27 16 -30 38 -3 43 -6 43 -28 0 -20
-6 -26 -27 -28 -16 -2 -28 -8 -28 -13 0 -5 -37 -9 -82 -9 -46 0 -93 -3 -105
-6 -26 -7 -30 -29 -8 -38 17 -6 20 -42 4 -51 -5 -4 -18 0 -28 9 -10 9 -31 16
-47 16 -16 0 -38 7 -48 15 -25 19 -83 19 -120 0 -15 -8 -36 -15 -45 -15 -9 0
-22 -5 -28 -11 -14 -14 -79 -22 -110 -14 -12 3 -24 14 -28 24 -8 27 -34 34
-61 16 -14 -9 -46 -15 -77 -15 l-54 0 -17 148 c-10 81 -16 167 -14 192 l3 45
70 5 c62 4 70 7 70 25 0 18 -8 21 -70 25 -70 5 -70 5 -70 35 0 30 0 30 67 35
63 5 69 7 93 39 28 39 17 59 -19 38 -15 -9 -145 -12 -478 -12 -317 0 -458 -3
-458 -11 0 -5 12 -22 28 -37 22 -21 38 -26 87 -29 57 -3 60 -4 60 -28 0 -24
-3 -25 -62 -28 -49 -2 -65 -7 -73 -21 -13 -26 -4 -31 59 -31 31 0 61 -4 67 -8
8 -5 9 -34 3 -97 -4 -49 -8 -131 -8 -182 -1 -93 -9 -115 -31 -88 -7 8 -21 15
-30 15 -32 0 -50 12 -50 31 0 12 -10 23 -25 29 -15 6 -25 17 -25 29 0 12 -9
20 -27 24 -32 6 -53 -7 -53 -34 0 -14 -7 -19 -25 -19 -14 0 -29 -8 -35 -20
-13 -24 -72 -27 -110 -5 -14 8 -46 14 -72 15 -26 0 -49 4 -52 9 -12 19 -188
38 -220 23 -73 -33 -177 -44 -193 -19 -4 6 -13 26 -19 44 -15 41 -3 53 53 53
35 0 43 3 43 19 0 15 -10 20 -47 26 -75 10 -154 38 -151 53 4 17 40 37 98 54
68 20 60 42 -17 49 -73 7 -113 29 -113 64 0 28 25 47 85 65 70 22 86 30 80 40
-3 6 -18 10 -32 10 -34 0 -136 31 -145 45 -24 32 7 75 54 75 38 0 89 30 86 50
-2 8 -17 22 -33 30 -89 45 -146 83 -169 113 -26 33 -26 38 -32 243 -3 115 -9
213 -14 218 -5 5 -16 6 -24 3 -14 -6 -16 -34 -16 -211 0 -172 -3 -209 -17
-233 -19 -35 -76 -77 -157 -118 -33 -16 -62 -35 -64 -42 -5 -17 57 -53 93 -53
44 0 57 -12 53 -50 -3 -29 -8 -34 -48 -46 -25 -8 -57 -14 -71 -14 -14 0 -34
-6 -44 -14 -18 -13 -17 -14 11 -28 16 -9 43 -18 59 -22 51 -12 75 -34 75 -66
0 -37 -23 -50 -98 -57 -83 -7 -88 -10 -67 -33 10 -11 26 -20 35 -20 17 0 110
-47 110 -56 0 -8 -73 -34 -126 -43 -66 -12 -89 -27 -74 -46 7 -8 25 -11 49 -8
32 4 40 2 45 -14 8 -25 11 -191 4 -199 -3 -2 -22 -7 -42 -11 -46 -7 -63 7 -77
63 -6 24 -17 49 -25 55 -8 7 -14 30 -14 55 0 46 -24 74 -63 74 -15 0 -18 5
-13 24 5 19 -1 28 -29 47 -18 13 -39 34 -45 47 -14 31 -41 22 -100 -31 -56
-51 -60 -56 -60 -87 0 -50 -24 -55 -287 -58 -174 -3 -243 0 -243 8 0 6 7 13
15 16 22 9 18 32 -7 40 -36 10 -58 35 -58 65 0 56 10 54 -261 51 -170 -2 -255
0 -264 8 -16 13 -25 -7 -25 -54 0 -37 -21 -61 -63 -71 -15 -4 -30 -11 -33 -16
-10 -16 -34 -9 -34 10 0 31 -25 42 -82 39 -46 -3 -53 -6 -56 -25 -2 -12 -10
-27 -17 -33 -17 -15 -65 -5 -65 13 0 21 -16 37 -40 42 -33 6 -33 9 -7 41 13
16 32 44 41 62 19 37 18 37 -53 45 -24 3 -48 10 -53 15 -13 13 -36 225 -37
347 -7 549 -8 498 16 504 35 9 72 47 67 69 -6 20 -53 52 -78 52 -13 0 -16 11
-16 54 0 35 -5 58 -15 66 -11 9 -15 34 -15 96 0 76 -7 103 -24 87z m6858
-1256 c0 -49 -22 -86 -43 -73 -6 4 -11 34 -11 67 0 60 0 60 28 57 25 -3 27 -6
26 -51z m-2662 -192 c3 -82 9 -173 11 -201 3 -31 1 -56 -6 -63 -14 -14 -443
-16 -452 -2 -6 10 13 386 20 409 4 10 51 12 212 10 l208 -3 7 -150z m-3304
-221 c3 -44 -16 -71 -43 -60 -10 4 -15 19 -15 49 0 50 6 59 35 55 16 -2 21
-12 23 -44z m4322 13 c0 -29 -34 -62 -55 -53 -9 3 -26 -1 -39 -9 -18 -12 -29
-13 -57 -3 -18 6 -40 13 -47 15 -8 1 -12 9 -9 16 2 8 25 12 67 12 53 0 68 4
87 23 29 29 53 29 53 -1z"/>
</g>
</svg>
